<?xml version="1.0" standalone="no"?>
<!DOCTYPE svg PUBLIC "-//W3C//DTD SVG 20010904//EN"
 "http://www.w3.org/TR/2001/REC-SVG-20010904/DTD/svg10.dtd">
<svg version="1.0" xmlns="http://www.w3.org/2000/svg"
 width="1715.000000pt" height="1715.000000pt" viewBox="0 0 1715.000000 1715.000000"
 preserveAspectRatio="xMidYMid meet">
<metadata>
Created by potrace 1.11, written by Peter Selinger 2001-2013
</metadata>
<g transform="translate(0.000000,1715.000000) scale(0.100000,-0.100000)"
fill="#000000" stroke="none">
<path d="M12600 12699 c-65 -13 -76 -17 -126 -41 -115 -56 -207 -167 -240
-290 -15 -58 -17 -329 -18 -3618 -1 -2005 3 -3576 8 -3602 5 -28 13 -45 19
-41 6 4 7 1 2 -6 -4 -7 -2 -25 5 -39 7 -15 20 -42 29 -60 15 -30 98 -123 132
-147 79 -56 177 -83 282 -80 47 1 90 5 96 9 6 4 19 9 29 11 38 7 112 47 105
58 -3 6 -1 7 6 3 6 -4 17 -3 24 2 7 5 32 21 57 34 108 60 147 83 183 105 21
13 55 33 75 44 86 48 267 154 272 159 3 3 21 13 40 24 79 41 147 80 172 97 14
11 29 19 32 19 3 0 36 18 72 41 37 22 78 45 91 50 12 4 23 14 23 20 0 7 3 10
6 6 3 -3 29 8 57 25 29 17 72 42 97 56 25 14 56 32 70 41 14 10 47 28 73 42
26 13 56 31 65 40 9 8 22 16 27 17 6 1 37 18 69 37 32 19 63 35 68 35 5 0 6 5
2 12 -4 6 -3 8 3 5 14 -9 175 87 165 98 -4 5 -2 5 5 1 7 -4 29 4 50 16 21 13
55 32 75 43 20 10 34 24 31 29 -4 6 -3 8 2 4 7 -7 52 15 132 64 21 14 45 28
53 31 8 4 33 18 55 32 22 13 49 29 60 34 11 6 41 23 68 38 26 15 149 87 275
159 125 73 295 171 377 219 83 48 175 101 205 118 30 16 88 50 127 74 40 23
77 43 83 43 5 0 10 4 10 9 0 5 8 11 18 14 17 6 105 54 149 83 12 7 37 22 55
33 18 10 89 51 158 90 69 39 124 76 122 82 -1 6 2 8 8 4 11 -7 112 50 178 98
43 32 108 116 133 171 42 97 52 257 20 331 -54 126 -129 213 -226 266 -33 17
-67 37 -75 43 -8 7 -40 25 -70 41 -30 15 -66 36 -80 45 -14 10 -90 55 -170
100 -197 112 -197 112 -430 248 -85 49 -211 122 -280 161 -69 39 -132 76 -140
81 -8 6 -28 17 -45 25 -16 8 -39 21 -49 30 -20 15 -20 15 0 30 10 8 22 15 27
15 4 0 26 11 48 26 22 14 55 33 72 43 187 105 463 267 465 273 2 4 8 8 14 8 5
0 63 32 129 70 66 39 124 70 130 70 5 0 9 5 9 10 0 6 4 10 10 10 5 0 49 23 97
52 113 67 141 83 181 102 17 8 32 19 32 24 0 5 6 9 13 9 23 1 182 102 222 141
54 55 101 135 120 207 17 64 18 177 3 235 -28 105 -125 235 -206 276 -20 11
-43 25 -50 32 -7 6 -20 12 -28 12 -8 0 -14 4 -14 8 0 9 -71 47 -82 44 -5 -1
-8 2 -8 6 0 9 -37 29 -54 30 -5 0 -12 4 -15 9 -6 9 -95 62 -401 237 -102 58
-192 111 -200 116 -8 6 -24 14 -35 20 -11 5 -42 23 -70 40 -27 17 -58 33 -67
37 -10 3 -18 9 -18 14 0 5 -5 9 -11 9 -8 0 -136 70 -199 110 -23 14 -108 63
-175 100 -33 18 -67 38 -75 44 -8 6 -35 22 -60 35 -25 13 -52 30 -61 37 -8 8
-18 14 -22 14 -3 0 -60 32 -126 70 -66 39 -124 70 -130 70 -6 0 -11 4 -11 9 0
10 -61 37 -75 33 -5 -2 -7 0 -2 4 7 7 -105 76 -119 74 -4 -1 -10 2 -13 7 -6
10 -53 38 -188 114 -21 12 -75 43 -121 70 -45 27 -85 49 -89 49 -4 0 -14 6
-22 14 -9 7 -45 29 -81 49 -36 19 -89 49 -118 66 -29 17 -57 31 -62 31 -6 0
-10 3 -10 8 0 4 -31 23 -68 42 -37 19 -69 37 -72 40 -16 18 -83 49 -93 44 -7
-4 -9 -4 -5 1 7 7 -73 65 -89 65 -3 0 -34 18 -69 40 -35 22 -66 40 -69 40 -2
0 -50 27 -106 60 -55 33 -103 60 -105 60 -2 0 -32 18 -66 40 -35 22 -69 40
-75 40 -7 0 -13 5 -13 10 0 6 -5 10 -10 10 -6 0 -40 18 -76 40 -36 22 -71 37
-77 33 -7 -3 -9 -2 -5 2 11 12 -236 152 -299 171 -59 17 -162 24 -213 13z
m287 -733 c32 -19 62 -34 67 -34 5 0 12 -4 15 -9 9 -13 128 -83 140 -83 6 0
11 -4 11 -10 0 -5 5 -10 10 -10 6 0 102 -53 213 -118 111 -66 236 -138 277
-161 41 -23 82 -46 90 -51 53 -33 153 -90 156 -90 2 0 32 -17 66 -38 35 -21
70 -41 78 -45 8 -4 29 -15 45 -26 17 -10 46 -27 65 -38 19 -11 76 -44 125 -73
50 -29 110 -64 135 -78 25 -14 115 -66 200 -115 85 -50 180 -104 210 -120 30
-16 62 -36 71 -43 8 -8 19 -14 24 -14 5 0 42 -21 84 -46 42 -25 85 -50 96 -56
53 -29 61 -34 75 -45 8 -6 40 -24 70 -40 30 -16 73 -40 95 -54 22 -13 54 -31
70 -39 17 -8 32 -17 35 -20 4 -5 257 -152 394 -230 20 -11 51 -29 70 -39 18
-11 44 -25 57 -33 13 -7 26 -16 29 -19 3 -3 20 -11 38 -18 17 -8 32 -17 32
-21 0 -4 8 -10 18 -13 17 -6 45 -22 160 -90 35 -20 65 -37 68 -37 3 0 17 -8
32 -19 15 -10 42 -27 60 -38 l33 -20 -118 -68 c-65 -37 -143 -81 -173 -98 -30
-17 -56 -34 -58 -39 -2 -4 -8 -8 -14 -8 -9 0 -267 -148 -278 -160 -3 -3 -10
-6 -16 -7 -9 -2 -218 -122 -284 -163 -8 -5 -34 -19 -58 -31 -23 -13 -51 -31
-62 -41 -11 -10 -20 -16 -20 -13 0 3 -22 -6 -49 -22 -27 -15 -48 -30 -46 -33
2 -4 -2 -7 -9 -7 -18 0 -126 -63 -126 -73 0 -5 -7 -7 -15 -4 -8 4 -15 1 -15
-5 0 -6 -6 -11 -14 -11 -8 0 -21 -6 -28 -12 -18 -18 -74 -48 -87 -48 -6 0 -45
20 -87 45 -41 25 -78 45 -82 45 -3 0 -13 6 -21 14 -9 7 -45 29 -81 47 -36 19
-67 37 -70 41 -3 4 -17 12 -30 18 -14 5 -38 19 -55 30 -16 11 -39 24 -50 30
-11 6 -29 16 -40 23 -24 14 -116 67 -165 95 -19 10 -91 52 -160 92 -69 40
-144 84 -168 97 -24 13 -68 39 -99 58 -31 19 -61 31 -66 28 -6 -3 -7 -1 -3 5
4 7 3 12 -2 12 -6 0 -40 18 -76 40 -36 22 -68 40 -71 40 -2 0 -29 16 -59 35
-30 19 -57 35 -59 35 -3 0 -66 36 -141 80 -76 44 -140 80 -143 80 -4 0 -14 6
-22 14 -9 7 -36 25 -61 38 -25 14 -90 51 -145 83 -55 32 -112 64 -127 72 -16
8 -28 18 -29 21 -1 9 -1 1652 0 1675 1 22 0 23 68 -17z m-27 -2376 c8 -10 125
-75 129 -71 2 1 7 -1 10 -6 5 -7 183 -113 331 -196 19 -10 68 -39 108 -64 40
-24 78 -41 85 -37 7 4 9 4 5 -1 -6 -6 130 -95 146 -95 3 0 25 -13 49 -30 25
-16 50 -30 56 -30 6 0 11 -4 11 -10 0 -5 5 -10 11 -10 5 0 53 -25 106 -57 53
-31 103 -56 110 -56 7 0 13 -4 13 -8 0 -4 34 -27 77 -51 87 -49 109 -62 176
-101 48 -29 49 -29 25 -41 -33 -18 -476 -274 -518 -300 -19 -12 -56 -33 -82
-46 -27 -14 -48 -28 -48 -32 0 -5 -5 -8 -11 -8 -6 0 -54 -26 -107 -57 -54 -32
-113 -66 -132 -76 -19 -11 -38 -25 -42 -31 -4 -6 -8 -8 -8 -3 0 4 -12 0 -26
-9 -14 -10 -38 -24 -54 -33 -31 -17 -171 -97 -307 -176 -48 -27 -80 -52 -76
-58 3 -6 1 -7 -5 -3 -6 4 -25 0 -42 -9 l-30 -16 0 870 c0 825 1 870 18 864 9
-4 19 -9 22 -13z m2120 -1225 c8 -6 38 -24 65 -40 145 -81 352 -200 375 -215
8 -6 23 -13 33 -16 9 -4 17 -11 17 -17 0 -6 3 -7 6 -4 4 4 19 -1 33 -11 34
-22 52 -33 131 -79 36 -21 74 -43 85 -50 11 -7 26 -15 34 -19 8 -4 63 -36 123
-71 60 -35 113 -63 119 -63 5 0 9 -4 9 -10 0 -5 5 -10 10 -10 6 0 27 -11 48
-23 35 -22 64 -39 180 -103 26 -15 58 -34 72 -43 14 -10 37 -22 51 -28 14 -6
26 -18 26 -27 0 -8 -4 -13 -8 -10 -5 3 -41 -14 -81 -37 -40 -23 -109 -63 -153
-88 -44 -25 -81 -49 -83 -53 -2 -4 -8 -8 -12 -8 -5 0 -53 -25 -107 -57 -101
-58 -136 -78 -200 -114 -54 -30 -157 -93 -163 -99 -3 -3 -12 -6 -20 -8 -8 -2
-22 -9 -30 -16 -8 -7 -36 -23 -62 -36 -27 -13 -45 -28 -41 -34 3 -6 3 -8 -2
-4 -8 8 -115 -48 -127 -66 -4 -6 -8 -7 -8 -2 0 5 -8 3 -17 -5 -10 -8 -27 -19
-38 -25 -53 -29 -74 -41 -122 -71 -28 -18 -55 -33 -60 -33 -5 0 -15 -6 -22
-12 -6 -7 -15 -13 -19 -13 -4 0 -18 -8 -32 -17 -31 -20 -207 -121 -280 -161
-30 -16 -62 -36 -71 -43 -8 -8 -18 -14 -22 -14 -3 0 -83 -45 -178 -100 -94
-55 -173 -100 -175 -100 -3 0 -104 -59 -154 -90 -33 -20 -127 -75 -155 -90
-38 -21 -84 -47 -220 -127 -60 -35 -117 -68 -125 -73 -8 -5 -40 -23 -70 -41
-30 -18 -84 -48 -120 -67 -36 -19 -72 -41 -81 -48 -8 -8 -21 -14 -27 -14 -7 0
-12 -4 -12 -9 0 -5 -9 -12 -20 -16 -11 -3 -86 -45 -167 -92 -82 -47 -173 -99
-203 -116 -30 -16 -63 -37 -72 -45 -17 -14 -18 -13 -19 9 -1 33 -1 1639 0
1664 1 14 20 31 59 53 31 18 64 37 72 42 17 11 104 61 170 98 25 14 59 34 75
44 17 10 38 21 48 24 9 4 17 10 17 15 0 5 7 9 16 9 9 0 12 5 8 12 -4 7 -3 8 4
4 11 -6 60 18 73 37 3 5 10 9 15 9 13 0 208 111 212 120 2 4 9 8 16 8 7 0 32
13 57 28 24 16 76 45 114 67 39 21 72 42 73 46 2 5 7 9 12 9 7 0 41 18 165 90
81 46 411 238 443 257 20 12 44 25 52 29 8 5 69 39 135 78 259 150 270 155
290 149 11 -3 27 -11 35 -18z"/>
<path d="M1525 11705 c-75 -20 -102 -32 -148 -64 -59 -40 -114 -98 -145 -150
-27 -47 -69 -154 -77 -199 -5 -32 -22 -117 -30 -152 -3 -14 -7 -36 -10 -50 -2
-14 -16 -81 -30 -150 -14 -69 -28 -136 -30 -150 -3 -14 -7 -36 -10 -50 -3 -14
-12 -59 -20 -100 -8 -41 -17 -86 -20 -100 -28 -139 -33 -162 -41 -205 -3 -16
-62 -311 -130 -655 -69 -344 -128 -634 -130 -645 -2 -11 -13 -67 -25 -125 -11
-58 -23 -116 -25 -130 -3 -14 -11 -56 -19 -95 -8 -38 -16 -81 -19 -95 -2 -14
-70 -353 -151 -755 -81 -401 -149 -743 -152 -760 -2 -16 -14 -73 -25 -125 -10
-52 -21 -106 -24 -120 -2 -14 -7 -36 -9 -50 -3 -14 -8 -38 -11 -55 -3 -16 -9
-48 -14 -70 -31 -133 10 -179 190 -210 71 -12 535 -14 600 -2 134 25 195 58
229 125 7 12 32 125 57 250 25 125 48 236 50 247 2 11 11 54 19 95 8 41 17 86
20 100 2 14 9 48 15 76 6 28 13 61 15 75 6 32 12 61 30 149 8 41 17 84 19 95
2 11 18 90 36 175 17 85 34 166 36 180 4 22 54 272 68 343 3 15 8 39 11 55 3
15 8 38 11 52 3 14 8 36 10 50 2 14 7 36 10 50 3 14 8 36 11 50 2 14 35 180
73 370 38 190 72 360 75 378 3 18 12 64 20 102 8 38 17 84 20 102 3 18 8 40
10 48 2 8 6 26 9 40 2 14 11 59 20 100 8 41 18 89 21 105 3 17 45 228 94 470
67 333 90 432 95 405 12 -69 25 -156 31 -200 3 -25 8 -56 10 -70 3 -14 7 -45
10 -70 3 -25 7 -52 10 -60 2 -8 7 -44 10 -80 4 -36 8 -67 10 -70 2 -3 6 -30 9
-60 4 -30 9 -66 12 -80 2 -14 6 -41 8 -60 4 -33 11 -80 21 -145 3 -16 7 -50
10 -75 4 -25 10 -67 15 -95 5 -27 12 -75 16 -105 3 -30 8 -62 9 -70 1 -8 6
-40 10 -70 4 -30 9 -62 10 -70 2 -8 6 -37 9 -65 4 -27 9 -61 11 -75 8 -50 16
-107 25 -170 5 -36 12 -81 14 -100 25 -169 38 -261 42 -295 3 -22 9 -62 14
-90 5 -27 12 -72 15 -100 3 -27 8 -66 11 -85 3 -19 7 -51 9 -70 3 -19 7 -46
10 -60 3 -14 7 -41 9 -60 3 -19 9 -64 15 -100 6 -36 13 -87 16 -115 3 -27 10
-75 15 -105 5 -30 12 -75 15 -100 10 -70 14 -97 31 -215 8 -60 17 -125 20
-144 2 -19 6 -46 9 -60 6 -33 25 -165 31 -211 2 -19 7 -51 9 -70 3 -19 15 -98
26 -175 11 -77 22 -151 24 -165 2 -14 7 -47 10 -75 14 -105 59 -147 200 -186
71 -20 105 -22 295 -23 237 -1 336 6 423 29 131 34 162 64 268 257 41 73 78
141 84 150 5 9 17 29 26 45 43 78 86 155 124 223 24 41 56 100 73 130 16 30
81 147 145 260 63 113 211 378 329 590 173 311 410 734 620 1110 14 25 109
196 212 380 102 184 190 342 196 350 5 8 48 85 95 170 47 85 90 162 96 170 9
15 170 304 218 393 14 26 28 47 32 47 3 0 -7 -62 -23 -137 -31 -151 -39 -188
-44 -218 -2 -11 -6 -33 -9 -50 -35 -172 -324 -1618 -328 -1640 -3 -17 -17 -86
-31 -155 -14 -69 -27 -136 -30 -150 -2 -14 -16 -81 -30 -150 -14 -69 -27 -136
-30 -150 -2 -14 -34 -171 -70 -350 -36 -179 -67 -336 -70 -350 -8 -41 -34
-173 -41 -205 -3 -16 -8 -45 -11 -64 -2 -19 -7 -37 -9 -41 -3 -4 -7 -25 -10
-46 -4 -22 -8 -47 -11 -56 -3 -10 -7 -30 -10 -45 -3 -16 -12 -62 -20 -103 -9
-41 -18 -86 -20 -100 -2 -14 -9 -47 -14 -73 -26 -128 4 -172 145 -204 73 -17
506 -26 610 -13 193 25 270 76 289 190 3 19 21 114 41 210 19 96 37 184 39
195 2 11 21 103 41 205 20 102 39 196 41 210 3 14 30 147 60 295 30 149 57
283 60 299 3 17 18 95 34 175 16 80 31 157 33 171 3 14 25 126 50 250 26 124
48 236 51 250 2 14 32 162 66 330 34 168 64 316 66 330 3 14 22 113 44 220 21
107 41 206 43 220 3 14 31 153 62 310 31 157 59 294 61 305 2 11 35 175 73
365 59 295 68 358 67 437 -2 80 -6 100 -32 150 -35 69 -89 113 -175 142 -61
20 -76 21 -573 18 -281 -2 -522 -6 -536 -10 -14 -4 -38 -9 -55 -13 -113 -22
-246 -97 -342 -192 -80 -79 -149 -180 -265 -387 -72 -129 -302 -528 -771
-1340 -61 -104 -126 -217 -145 -250 -19 -33 -45 -79 -59 -103 -13 -23 -53 -93
-89 -154 -35 -61 -64 -112 -64 -115 0 -2 -9 -16 -19 -31 -10 -15 -142 -241
-292 -502 -150 -261 -289 -503 -310 -538 l-37 -62 -6 32 c-3 18 -8 51 -11 73
-6 39 -19 118 -30 180 -2 17 -7 50 -11 75 -3 25 -7 52 -9 60 -3 8 -7 33 -10
55 -3 22 -10 63 -15 90 -5 28 -12 68 -15 90 -3 22 -12 83 -21 135 -21 131 -23
142 -28 165 -2 11 -7 40 -10 65 -3 25 -8 56 -11 70 -2 13 -7 42 -10 65 -5 33
-25 154 -69 420 -2 17 -11 73 -20 125 -8 52 -34 208 -56 345 -22 138 -43 261
-45 275 -2 14 -15 96 -30 183 -14 87 -28 170 -30 185 -3 24 -38 243 -50 312
-2 14 -11 73 -20 131 -20 138 -39 208 -76 285 -65 138 -183 226 -349 260 -14
3 -36 8 -50 11 -14 4 -239 8 -500 9 -379 2 -485 0 -525 -11z"/>
<path d="M9890 10457 c-3 -3 -25 -8 -50 -11 -205 -27 -500 -206 -702 -425 -60
-65 -164 -197 -186 -236 -17 -30 -15 -13 23 187 20 100 38 199 42 218 10 55 7
97 -10 123 -40 62 -177 89 -426 83 -197 -4 -227 -8 -323 -36 -98 -29 -130 -74
-152 -212 -3 -15 -12 -63 -20 -105 -9 -43 -18 -89 -21 -103 -6 -32 -19 -93
-20 -100 -2 -9 -17 -84 -21 -103 -2 -10 -5 -26 -8 -35 -3 -9 -7 -33 -10 -52
-3 -19 -33 -170 -66 -335 -34 -165 -63 -311 -66 -325 -5 -30 -62 -316 -69
-351 -3 -13 -12 -58 -20 -99 -8 -41 -17 -86 -20 -100 -3 -14 -12 -59 -20 -100
-8 -41 -24 -120 -35 -175 -11 -54 -23 -111 -25 -126 -5 -27 -52 -264 -61 -304
-2 -11 -7 -33 -9 -50 -3 -16 -8 -37 -10 -45 -2 -8 -7 -31 -10 -50 -3 -19 -8
-42 -10 -50 -2 -8 -7 -31 -10 -50 -3 -19 -13 -69 -22 -110 -8 -41 -17 -86 -19
-100 -3 -14 -7 -32 -9 -40 -2 -8 -7 -31 -10 -50 -3 -19 -24 -125 -46 -235 -23
-110 -42 -209 -45 -220 -2 -11 -9 -47 -15 -81 -15 -75 -6 -127 26 -152 31 -24
112 -49 200 -61 75 -10 507 -7 565 3 100 19 175 49 211 85 35 35 40 48 63 166
2 11 24 121 49 245 60 296 57 282 61 305 2 11 13 67 25 125 12 58 23 116 26
130 3 14 7 36 10 50 3 14 8 36 11 50 3 14 7 40 10 59 2 19 7 37 9 41 3 4 7 25
10 46 4 22 8 47 11 56 3 10 7 30 10 45 29 176 95 476 126 578 128 421 412 812
712 980 137 76 247 81 433 21 135 -44 161 -48 199 -30 69 34 151 222 199 459
57 278 70 442 41 487 -20 31 -113 74 -203 94 -67 15 -313 31 -323 21z"/>
<path d="M10350 7683 c-164 -22 -269 -64 -343 -136 -28 -29 -60 -62 -70 -75
-43 -56 -114 -247 -136 -367 -6 -33 -13 -71 -16 -85 -25 -127 -26 -268 -2
-366 24 -96 96 -171 200 -208 96 -34 167 -44 322 -44 257 -1 433 52 533 159
73 78 140 235 182 424 28 130 37 374 16 454 -48 177 -209 252 -536 249 -69 -1
-136 -3 -150 -5z"/>
</g>
</svg>
