<?xml version="1.0" standalone="no"?>
<!DOCTYPE svg PUBLIC "-//W3C//DTD SVG 20010904//EN"
 "http://www.w3.org/TR/2001/REC-SVG-20010904/DTD/svg10.dtd">
<svg version="1.0" xmlns="http://www.w3.org/2000/svg"
 width="1397.000000pt" height="1397.000000pt" viewBox="0 0 1397.000000 1397.000000"
 preserveAspectRatio="xMidYMid meet">
<metadata>
Created by potrace 1.11, written by Peter Selinger 2001-2013
</metadata>
<g transform="translate(0.000000,1397.000000) scale(0.100000,-0.100000)"
fill="#000000" stroke="none">
<path d="M9479 10936 c-2 -2 -24 -7 -49 -10 -107 -14 -248 -118 -297 -216 -48
-97 -58 -155 -52 -300 0 -8 -1 -41 -3 -72 -3 -34 0 -54 6 -51 5 4 6 1 2 -6 -6
-10 -9 -177 -6 -311 0 -8 1 -89 1 -180 -1 -91 0 -172 0 -180 0 -8 -1 -41 -3
-72 -3 -34 0 -54 6 -51 5 4 6 1 1 -6 -5 -10 -8 -227 -4 -351 0 -8 -1 -41 -3
-72 -3 -34 0 -54 6 -51 5 4 6 1 2 -6 -5 -7 -8 -78 -7 -159 1 -81 0 -160 0
-177 -2 -44 -1 -3346 1 -3370 1 -11 0 -46 -2 -77 -3 -34 0 -54 6 -51 5 4 6 1
2 -6 -6 -10 -9 -177 -6 -311 0 -8 1 -89 1 -180 -1 -91 0 -172 0 -180 0 -8 -1
-41 -3 -72 -3 -34 0 -54 6 -51 5 4 6 1 1 -6 -5 -10 -8 -227 -4 -351 0 -8 -1
-41 -3 -72 -3 -34 0 -54 6 -51 5 4 6 1 1 -6 -7 -13 -9 -424 -1 -473 6 -39 26
-97 48 -142 25 -49 131 -154 163 -162 14 -3 25 -9 25 -13 0 -5 19 -14 43 -21
23 -7 54 -16 70 -21 39 -12 175 -3 222 14 44 16 122 58 230 122 39 23 93 55
120 70 76 43 153 88 194 112 20 12 50 29 66 37 17 9 37 20 45 25 45 30 153 91
160 91 5 0 10 3 12 8 2 4 21 16 43 27 22 10 47 25 56 32 18 15 92 57 137 77
17 8 32 20 32 27 0 7 3 10 6 6 3 -3 23 4 43 17 20 12 43 25 51 29 8 4 33 18
55 32 22 13 50 29 63 35 12 5 22 13 22 18 0 5 6 9 13 9 7 0 95 48 196 106 101
59 187 107 192 107 5 0 9 5 9 10 0 6 4 10 9 10 5 0 76 39 158 87 81 47 162 93
178 101 17 8 41 23 55 32 14 10 63 39 110 65 124 70 132 74 165 95 17 11 37
23 45 27 23 11 310 176 355 204 22 14 47 29 55 32 8 4 29 15 45 26 17 10 47
28 68 40 20 11 54 31 75 42 20 12 62 36 92 52 30 17 57 34 58 39 2 4 8 8 13 8
14 0 343 191 351 204 4 6 8 7 8 2 0 -5 6 -4 13 2 6 5 39 25 72 43 33 18 62 35
65 38 3 3 14 11 25 17 20 11 75 42 150 84 155 87 233 138 275 180 97 100 137
235 114 385 -10 64 -69 178 -117 224 -43 42 -125 101 -140 101 -4 0 -20 8 -35
19 -48 33 -451 263 -458 261 -4 -1 -10 2 -13 7 -3 6 -71 47 -150 92 -79 46
-160 92 -180 104 -20 11 -60 34 -89 51 -30 17 -61 36 -70 41 -14 8 -129 75
-207 119 -148 84 -177 106 -144 106 5 0 7 5 3 12 -4 6 -3 8 3 5 10 -6 22 -1
118 55 196 114 234 136 246 142 8 4 34 19 60 34 25 15 79 46 120 70 40 24 81
47 89 52 40 25 172 100 176 100 3 0 33 18 67 39 34 21 141 84 237 138 249 142
314 182 352 217 89 82 136 192 139 321 1 59 -29 185 -44 185 -6 0 -7 3 -4 7 4
3 -4 21 -18 39 -14 18 -25 35 -25 39 0 8 -93 95 -102 95 -4 0 -24 11 -44 25
-20 14 -41 22 -47 18 -5 -3 -7 -2 -4 3 3 5 -29 29 -71 52 -42 24 -90 51 -107
61 -16 10 -50 29 -75 43 -64 36 -152 87 -170 98 -8 5 -37 22 -65 38 -107 61
-133 76 -213 123 -45 27 -85 49 -87 49 -3 0 -29 16 -60 35 -30 20 -55 32 -55
28 0 -4 -4 -3 -8 2 -6 10 -31 25 -119 76 -18 11 -48 27 -65 38 -18 10 -73 42
-123 70 -49 28 -97 55 -105 61 -52 32 -140 80 -149 80 -6 0 -11 4 -11 8 0 5
-19 18 -42 30 -24 13 -65 36 -93 53 -27 16 -58 32 -67 36 -10 3 -18 9 -18 14
0 5 -3 8 -7 7 -5 -1 -19 5 -33 14 -14 9 -101 60 -195 113 -93 54 -197 114
-230 133 -33 20 -87 51 -120 69 -33 19 -78 44 -100 57 -22 13 -59 34 -81 47
-23 13 -94 54 -158 92 -63 37 -120 67 -125 67 -5 0 -11 3 -13 8 -3 7 -87 56
-238 140 -25 14 -47 28 -50 31 -3 3 -14 11 -25 17 -11 6 -42 23 -70 39 -27 15
-68 37 -90 49 -22 12 -42 24 -45 27 -7 9 -69 40 -76 38 -4 0 -10 3 -13 8 -6 9
-82 56 -176 108 -57 32 -91 52 -200 115 -43 25 -90 52 -104 60 -14 8 -48 28
-74 43 -26 16 -71 35 -99 44 -48 14 -161 27 -169 19z m234 -688 c34 -18 64
-35 67 -39 7 -8 109 -69 115 -69 3 0 23 -12 45 -26 22 -15 44 -23 51 -18 7 4
10 3 6 -3 -3 -5 22 -24 56 -43 34 -18 68 -37 75 -43 7 -5 25 -17 41 -26 29
-16 92 -52 166 -95 22 -12 62 -35 89 -49 27 -15 54 -31 60 -36 6 -4 31 -20 56
-33 53 -30 408 -234 430 -247 38 -24 199 -116 235 -135 22 -12 42 -24 45 -27
3 -3 31 -21 64 -38 32 -18 79 -45 105 -60 25 -15 53 -30 61 -34 8 -4 29 -15
45 -26 17 -10 46 -27 65 -38 19 -11 145 -84 279 -162 134 -77 247 -141 249
-141 3 0 13 -6 21 -14 9 -7 47 -30 85 -50 38 -21 90 -51 117 -68 27 -16 54
-26 60 -22 7 4 9 3 6 -3 -6 -10 210 -139 230 -137 7 1 11 -1 8 -5 -4 -8 137
-91 154 -91 5 0 11 -4 13 -8 3 -8 124 -82 133 -82 3 0 34 -18 70 -40 36 -22
70 -40 75 -40 6 0 10 -4 10 -10 0 -5 4 -10 9 -10 7 0 157 -84 169 -95 2 -1
-28 -20 -65 -40 -78 -43 -365 -210 -403 -233 -14 -9 -27 -15 -30 -15 -3 0 -23
-12 -45 -27 -22 -14 -47 -30 -55 -33 -8 -4 -31 -17 -50 -28 -33 -20 -258 -150
-365 -211 -27 -16 -57 -33 -65 -38 -56 -35 -173 -100 -181 -100 -5 0 -9 -4 -9
-10 0 -5 -4 -10 -9 -10 -8 0 -196 -104 -216 -120 -11 -9 -33 0 -90 35 -22 14
-51 31 -65 38 -14 6 -31 17 -38 24 -7 7 -18 13 -23 13 -5 0 -38 17 -72 39 -69
43 -442 258 -527 304 -30 16 -62 36 -70 43 -8 7 -26 17 -40 23 -14 6 -32 15
-40 21 -73 48 -185 108 -193 103 -6 -3 -7 -2 -4 4 4 6 -6 16 -21 22 -15 7 -83
46 -152 85 -69 40 -215 125 -325 189 -110 63 -216 125 -235 136 -19 12 -48 28
-65 37 -16 8 -66 36 -109 62 l-79 47 -1 863 c-1 475 1 866 3 868 7 7 9 6 74
-28z m-23 -2380 c22 -13 56 -32 75 -43 19 -11 166 -96 327 -190 161 -93 307
-177 323 -186 17 -9 64 -36 105 -61 41 -24 82 -47 90 -51 8 -4 29 -16 45 -27
31 -20 51 -31 125 -72 25 -13 63 -35 85 -49 22 -14 47 -29 55 -33 8 -4 24 -12
35 -19 42 -25 201 -116 229 -130 l28 -15 -28 -18 c-16 -9 -40 -24 -54 -33 -14
-9 -50 -29 -80 -45 -30 -16 -79 -44 -108 -63 -29 -18 -56 -33 -61 -33 -5 0
-11 -3 -13 -7 -1 -5 -23 -18 -48 -31 -25 -13 -63 -34 -85 -48 -22 -13 -49 -29
-60 -35 -11 -5 -29 -15 -40 -22 -11 -7 -47 -27 -80 -46 -33 -19 -63 -39 -67
-45 -4 -6 -8 -7 -8 -2 0 5 -8 2 -17 -6 -10 -9 -22 -17 -28 -19 -5 -2 -45 -24
-88 -49 -43 -25 -103 -59 -133 -75 -30 -17 -59 -36 -66 -43 -7 -7 -16 -12 -20
-12 -5 0 -52 -25 -106 -57 -53 -31 -110 -63 -125 -72 -16 -9 -36 -20 -45 -26
-73 -44 -201 -115 -206 -115 -3 0 -6 405 -6 900 0 495 2 900 5 900 2 0 23 -10
45 -22z m2115 -1222 c11 -7 40 -24 65 -38 25 -14 131 -75 235 -135 105 -60
212 -122 238 -136 26 -15 97 -56 156 -92 60 -36 111 -65 115 -65 3 0 31 -16
61 -36 31 -19 81 -49 113 -66 31 -17 65 -38 76 -47 10 -9 20 -15 22 -13 2 1
46 -22 97 -51 50 -30 139 -81 196 -115 l104 -60 -43 -24 c-23 -12 -50 -28 -59
-33 -9 -6 -34 -21 -56 -33 -22 -12 -58 -34 -80 -47 -22 -14 -53 -32 -70 -40
-16 -8 -37 -19 -45 -25 -34 -22 -151 -90 -155 -90 -3 0 -22 -11 -43 -24 -20
-12 -40 -23 -43 -22 -4 1 -15 -6 -25 -15 -11 -9 -26 -19 -34 -23 -8 -3 -28
-15 -45 -26 -16 -10 -41 -25 -55 -33 -84 -45 -154 -85 -215 -122 -38 -23 -149
-87 -245 -142 -96 -56 -191 -110 -210 -121 -19 -12 -50 -29 -67 -38 -18 -9
-30 -21 -26 -27 3 -6 1 -7 -5 -3 -6 4 -28 -4 -49 -17 -21 -13 -45 -26 -53 -30
-8 -4 -24 -13 -35 -19 -56 -36 -126 -78 -129 -78 -7 0 -181 -101 -186 -108 -3
-4 -10 -8 -17 -9 -6 -1 -53 -27 -103 -58 -51 -30 -94 -55 -96 -55 -2 0 -33
-18 -69 -40 -36 -22 -70 -40 -75 -40 -6 0 -10 -4 -10 -9 0 -5 -8 -11 -17 -14
-18 -6 -66 -32 -211 -118 -46 -27 -88 -49 -93 -49 -5 0 -9 -4 -9 -9 0 -5 -8
-11 -17 -14 -10 -4 -38 -18 -63 -33 -132 -78 -233 -134 -241 -134 -5 0 -9 -4
-9 -9 0 -5 -9 -11 -21 -14 -13 -4 -18 -10 -13 -18 4 -8 3 -10 -4 -5 -10 6
-135 -63 -515 -283 -48 -28 -89 -51 -90 -51 -5 0 0 1740 5 1745 2 3 76 46 164
96 138 80 279 161 364 210 14 8 27 16 30 19 5 5 62 37 97 54 13 6 23 14 23 19
0 4 5 7 11 7 5 0 81 41 167 91 86 51 182 105 212 122 30 16 60 33 65 37 6 4
31 19 56 33 77 42 93 52 109 63 8 6 38 24 65 39 28 15 71 40 96 54 234 133
287 166 284 171 -2 3 6 7 17 7 11 1 28 9 37 17 10 9 23 16 30 16 7 0 9 5 5 12
-4 6 -3 8 3 5 10 -6 58 20 223 119 61 37 77 40 105 20z"/>
<path d="M1083 9091 c-71 -24 -127 -63 -164 -114 -57 -77 -70 -119 -123 -387
-2 -14 -14 -72 -26 -130 -11 -58 -23 -116 -26 -130 -2 -14 -16 -81 -29 -150
-14 -69 -27 -136 -30 -150 -3 -14 -9 -48 -15 -76 -6 -28 -13 -64 -16 -80 -3
-16 -16 -81 -29 -144 -13 -63 -26 -127 -29 -142 -2 -15 -12 -63 -20 -105 -9
-43 -18 -87 -20 -98 -12 -59 -79 -394 -82 -414 -3 -13 -34 -169 -70 -345 -35
-177 -67 -334 -70 -351 -3 -16 -18 -95 -34 -175 -16 -80 -31 -156 -33 -170 -3
-14 -21 -104 -41 -200 -19 -96 -37 -186 -40 -200 -2 -14 -9 -45 -15 -70 -27
-113 -4 -158 91 -181 79 -19 431 -21 508 -3 76 18 115 37 136 69 13 19 92 380
138 630 2 11 20 102 40 202 20 100 38 190 40 200 31 158 162 811 176 878 11
50 22 106 25 125 3 19 8 42 10 50 2 8 7 31 10 50 3 19 8 42 10 50 2 8 7 29 10
45 5 34 10 58 25 130 6 28 12 61 15 75 3 14 12 59 20 100 21 105 25 121 31
155 2 17 9 46 14 65 8 33 14 61 26 135 3 17 11 55 18 85 l12 55 13 -85 c7 -47
15 -96 17 -110 2 -14 8 -59 14 -101 6 -41 12 -84 14 -95 2 -10 7 -41 10 -69 4
-27 8 -61 11 -75 2 -14 7 -47 10 -75 3 -27 7 -57 9 -65 3 -8 7 -37 11 -65 9
-74 39 -286 50 -345 2 -14 7 -47 10 -75 3 -27 12 -93 20 -145 20 -133 25 -166
35 -235 5 -33 12 -82 15 -110 4 -27 8 -57 10 -65 2 -8 7 -40 10 -70 3 -30 10
-77 15 -105 5 -27 12 -72 15 -100 8 -62 14 -112 20 -145 2 -14 7 -45 10 -70 4
-25 8 -56 10 -70 2 -14 20 -137 40 -275 19 -137 38 -263 40 -280 3 -16 8 -54
11 -84 11 -88 18 -104 62 -138 61 -46 128 -58 337 -58 248 1 320 15 385 74 35
33 124 185 440 756 15 28 40 73 55 100 123 220 165 296 187 335 14 25 90 162
170 305 80 143 156 280 170 305 14 25 58 104 98 175 40 72 86 154 102 184 16
29 78 142 139 250 128 229 122 218 241 433 51 92 96 168 99 168 4 0 3 -17 -1
-37 -9 -39 -17 -78 -26 -123 -2 -14 -9 -47 -14 -75 -6 -27 -12 -61 -15 -75 -3
-14 -14 -72 -26 -129 -11 -57 -23 -114 -25 -127 -2 -12 -42 -213 -89 -446 -46
-232 -87 -438 -90 -455 -3 -18 -12 -61 -19 -95 -8 -35 -17 -76 -19 -93 -3 -16
-21 -109 -40 -205 -20 -96 -38 -186 -41 -200 -2 -14 -18 -95 -36 -180 -18 -85
-34 -168 -37 -185 -2 -16 -11 -59 -19 -95 -8 -36 -17 -81 -20 -100 -3 -19 -17
-88 -30 -153 -13 -64 -27 -144 -31 -176 -5 -55 -4 -61 21 -84 46 -42 110 -52
346 -52 179 0 225 3 275 19 109 33 116 47 162 306 2 14 8 41 13 60 5 19 12 53
15 75 4 22 8 48 11 57 3 10 7 30 10 45 2 16 9 48 14 73 5 25 12 57 15 73 3 15
7 39 10 55 3 15 14 70 25 122 11 52 22 110 25 129 5 29 49 243 60 292 2 9 6
32 9 50 8 45 13 70 36 187 11 53 36 176 55 272 19 96 69 346 110 555 76 375
80 396 90 445 2 14 7 40 10 57 3 18 12 61 19 95 8 35 17 79 20 98 3 19 26 132
50 250 70 344 57 431 -74 501 -45 24 -46 24 -420 26 -414 3 -464 -2 -575 -56
-113 -56 -212 -166 -310 -346 -32 -59 -111 -198 -145 -255 -5 -8 -30 -51 -55
-95 -25 -44 -56 -98 -69 -120 -12 -22 -168 -292 -346 -600 -725 -1259 -664
-1154 -684 -1180 l-15 -20 1 20 c1 22 -9 88 -22 150 -5 22 -11 60 -14 85 -3
25 -8 56 -11 70 -2 13 -7 42 -10 65 -3 22 -8 47 -10 55 -2 8 -7 35 -10 60 -2
25 -7 56 -10 70 -2 13 -7 42 -10 65 -3 22 -13 81 -21 130 -8 50 -17 101 -19
115 -2 14 -11 68 -20 120 -9 52 -18 111 -21 130 -3 19 -11 73 -19 120 -8 47
-24 144 -35 215 -12 72 -23 141 -25 155 -2 14 -11 68 -20 120 -9 52 -18 109
-21 125 -2 17 -9 55 -14 85 -5 30 -11 73 -15 95 -3 22 -7 51 -10 65 -2 14 -7
42 -10 63 -12 87 -16 113 -20 127 -3 8 -7 33 -11 55 -9 59 -56 155 -97 197
-20 21 -58 48 -85 62 -91 46 -181 55 -539 55 -288 0 -334 -2 -380 -18z"/>
<path d="M7140 8193 c-195 -32 -446 -202 -599 -405 -24 -32 -45 -58 -48 -58
-6 0 3 51 29 174 27 126 26 161 -1 190 -35 38 -94 49 -261 52 -220 5 -324 -20
-363 -85 -12 -20 -183 -843 -212 -1021 -3 -19 -8 -42 -10 -50 -2 -8 -6 -26 -9
-40 -2 -14 -16 -81 -30 -150 -30 -151 -27 -134 -70 -350 -19 -96 -37 -186 -40
-200 -2 -14 -9 -45 -15 -70 -5 -25 -13 -61 -16 -80 -3 -19 -13 -69 -21 -110
-9 -41 -18 -86 -20 -100 -2 -14 -9 -45 -14 -70 -5 -25 -12 -58 -15 -75 -2 -16
-20 -106 -39 -200 -30 -149 -33 -174 -21 -201 13 -32 54 -57 115 -70 70 -14
413 -13 484 2 131 27 160 57 181 184 3 19 8 42 10 50 2 8 6 27 9 43 3 15 7 35
10 45 3 9 7 33 10 52 3 19 14 79 26 134 11 54 22 108 24 121 4 21 41 206 51
255 5 23 18 86 30 150 3 14 9 48 15 75 6 28 12 61 15 75 54 287 118 451 253
654 62 93 201 234 282 285 121 78 204 87 353 37 94 -31 126 -32 161 -5 51 40
84 125 130 339 23 106 31 158 41 265 7 81 -41 120 -183 150 -63 14 -185 18
-242 8z"/>
<path d="M7442 6174 c-215 -47 -302 -171 -358 -511 -11 -62 -8 -195 5 -242 8
-28 28 -59 59 -90 66 -66 134 -85 312 -87 311 -4 432 73 510 324 53 169 63
398 21 480 -26 51 -86 96 -155 118 -70 22 -308 27 -394 8z"/>
</g>
</svg>
