<?xml version="1.0" standalone="no"?>
<!DOCTYPE svg PUBLIC "-//W3C//DTD SVG 20010904//EN"
 "http://www.w3.org/TR/2001/REC-SVG-20010904/DTD/svg10.dtd">
<svg version="1.0" xmlns="http://www.w3.org/2000/svg"
 width="1751.000000pt" height="1751.000000pt" viewBox="0 0 1751.000000 1751.000000"
 preserveAspectRatio="xMidYMid meet">
<metadata>
Created by potrace 1.11, written by Peter Selinger 2001-2013
</metadata>
<g transform="translate(0.000000,1751.000000) scale(0.100000,-0.100000)"
fill="#000000" stroke="none">
<path d="M12970 12928 c-25 -4 -72 -21 -105 -37 -132 -65 -222 -188 -241 -327
-10 -74 -10 -1574 0 -1574 5 0 4 -6 -1 -12 -10 -14 -10 -5507 1 -5570 25 -152
143 -292 291 -343 70 -23 152 -29 221 -15 76 15 98 26 277 129 81 47 164 94
182 104 19 9 35 22 35 27 0 6 3 9 8 8 18 -4 63 23 56 34 -4 6 -3 8 4 4 14 -9
63 14 55 27 -3 6 -2 8 3 5 5 -4 27 5 49 18 22 13 47 27 55 31 8 3 47 25 85 48
39 23 108 63 155 90 47 27 87 53 88 57 2 4 8 8 14 8 6 0 74 37 152 81 77 45
157 91 176 102 19 10 72 41 118 68 45 27 87 49 91 49 5 0 11 3 13 8 2 4 19 16
38 26 19 10 76 42 125 71 50 29 125 73 167 97 43 25 74 49 70 53 -4 5 -2 5 5
2 11 -7 134 59 141 75 2 5 8 8 13 8 5 0 50 24 100 52 49 29 99 58 109 64 11 6
17 14 12 19 -4 5 -2 5 5 1 7 -4 30 5 52 19 23 14 44 25 49 25 4 0 17 8 28 18
10 10 21 18 24 18 10 -1 195 108 198 116 2 4 8 8 14 8 5 0 64 32 131 71 157
92 181 106 247 142 30 16 62 35 70 42 8 7 25 16 38 19 12 4 22 12 22 17 0 5 5
9 10 9 8 0 390 216 460 260 8 5 52 30 97 56 45 26 79 52 76 57 -3 6 -1 7 5 3
10 -6 76 28 177 90 22 13 49 28 60 34 27 12 106 88 130 125 25 38 56 105 48
105 -3 0 -1 6 5 13 9 10 23 83 24 122 1 36 -15 131 -24 142 -6 7 -8 13 -4 13
3 0 -5 21 -18 48 -22 43 -36 62 -85 117 -21 23 -59 55 -66 55 -2 0 -25 13 -51
30 -26 16 -51 27 -55 24 -5 -3 -9 -1 -9 5 0 8 -130 87 -314 189 -22 13 -51 30
-64 38 -12 8 -28 12 -34 8 -6 -4 -8 -3 -5 3 4 6 -8 18 -26 27 -17 9 -54 29
-82 46 -27 16 -70 41 -95 55 -46 26 -71 40 -152 89 -26 15 -52 25 -58 21 -6
-4 -9 -2 -8 4 2 6 -24 26 -57 44 -33 17 -62 34 -65 37 -4 5 -88 54 -249 145
-108 61 -117 70 -83 82 9 4 40 20 67 36 28 17 75 43 105 60 30 16 62 35 70 41
16 11 33 21 109 63 25 14 51 29 56 33 6 4 33 20 60 35 57 33 143 82 165 95
104 61 172 100 177 100 3 0 21 11 40 26 18 14 33 22 33 18 0 -4 8 0 18 8 9 8
44 30 77 48 33 17 65 35 70 40 6 4 30 19 55 32 76 42 117 66 157 90 21 13 60
35 86 48 26 14 67 42 89 62 23 21 44 39 47 40 17 8 70 90 91 138 31 72 34 227
7 307 -23 70 -69 144 -85 138 -7 -3 -11 -1 -8 3 7 11 -3 23 -54 62 -51 39 -72
53 -115 75 -16 8 -48 26 -70 40 -22 14 -56 33 -75 41 -19 9 -37 19 -40 23 -5
6 -34 23 -100 58 -19 10 -37 21 -40 24 -3 3 -25 17 -50 30 -25 14 -56 32 -70
40 -14 9 -54 33 -90 53 -76 42 -121 68 -248 143 -52 30 -98 51 -105 47 -6 -4
-9 -3 -4 1 8 9 -50 49 -138 94 -27 15 -61 34 -74 43 -13 10 -28 15 -33 12 -4
-3 -8 -1 -8 4 0 10 -173 112 -189 112 -5 0 -11 3 -13 8 -3 6 -101 65 -218 130
-42 24 -91 52 -135 79 -70 42 -231 131 -239 131 -5 0 -12 4 -15 9 -6 9 -44 33
-111 71 -19 10 -55 31 -80 46 -25 15 -61 34 -80 42 -19 9 -37 19 -40 23 -7 10
-150 91 -161 91 -5 0 -9 5 -9 10 0 6 -4 10 -9 10 -5 0 -45 21 -88 46 -43 26
-96 57 -118 69 -58 31 -88 49 -105 61 -8 6 -46 28 -85 49 -38 21 -74 41 -80
45 -5 4 -26 17 -45 28 -19 10 -111 63 -205 117 -156 90 -306 177 -395 227 -19
11 -72 42 -118 69 -45 27 -84 49 -87 49 -2 0 -33 18 -69 41 -37 23 -70 38 -77
33 -8 -4 -9 -3 -5 4 7 12 -76 54 -134 67 -50 11 -138 13 -190 3z m260 -668
c14 -10 45 -28 70 -42 25 -14 72 -40 105 -58 33 -18 67 -39 75 -45 8 -7 44
-27 80 -46 36 -19 67 -37 70 -40 8 -9 364 -210 375 -212 5 -1 14 -7 20 -13 5
-7 30 -23 55 -36 25 -14 61 -34 81 -46 20 -11 47 -26 60 -34 13 -7 31 -18 39
-24 8 -6 47 -28 85 -49 107 -58 110 -60 115 -66 3 -3 30 -19 60 -36 30 -17 95
-53 143 -82 49 -28 91 -51 93 -51 3 0 25 -13 49 -30 24 -16 46 -30 49 -30 3 0
29 -14 58 -31 49 -30 78 -46 139 -81 13 -7 26 -15 29 -18 3 -3 21 -13 40 -22
32 -16 72 -39 155 -89 17 -10 53 -31 80 -47 28 -16 67 -38 88 -50 20 -12 52
-30 70 -41 17 -10 72 -42 120 -70 49 -28 93 -51 98 -51 5 0 9 -4 9 -10 0 -5 4
-10 10 -10 5 0 44 -20 86 -45 42 -25 81 -42 86 -38 6 3 8 2 5 -4 -3 -5 11 -19
31 -30 49 -26 89 -50 194 -112 48 -28 91 -51 97 -51 6 0 11 -4 11 -9 0 -5 15
-15 33 -22 17 -7 51 -26 73 -41 23 -15 44 -28 46 -28 3 0 43 -22 89 -50 46
-27 90 -50 97 -50 6 0 12 -4 12 -10 0 -5 6 -10 14 -10 8 0 16 -3 18 -7 7 -16
69 -44 81 -37 6 4 9 4 5 -1 -8 -8 53 -55 71 -55 31 0 13 -22 -41 -53 -35 -19
-146 -83 -248 -142 -102 -59 -205 -119 -230 -133 -25 -13 -57 -33 -72 -43 -14
-11 -31 -19 -37 -19 -6 0 -11 -5 -11 -11 0 -5 -4 -8 -9 -4 -5 3 -16 -2 -24
-10 -9 -8 -20 -15 -25 -15 -5 0 -15 -7 -22 -15 -6 -8 -15 -14 -18 -12 -4 1
-18 -6 -32 -15 -14 -9 -49 -29 -77 -45 -29 -16 -50 -33 -45 -38 4 -4 2 -6 -3
-2 -6 3 -29 -5 -50 -18 -22 -13 -56 -32 -75 -41 -19 -10 -37 -21 -40 -24 -3
-4 -18 -13 -35 -22 -16 -8 -70 -39 -120 -68 -85 -49 -111 -64 -210 -120 -22
-12 -45 -26 -51 -31 -6 -5 -55 18 -125 58 -62 36 -134 77 -159 91 -25 13 -49
28 -55 32 -5 4 -32 20 -60 35 -77 43 -88 49 -125 73 -19 12 -41 20 -48 17 -7
-3 -10 0 -7 5 4 6 -9 17 -27 24 -18 8 -37 18 -41 23 -5 4 -37 24 -72 43 -35
19 -103 58 -152 87 -48 28 -105 61 -126 72 -21 12 -49 28 -62 37 -13 9 -30 12
-36 8 -8 -4 -9 -3 -5 4 4 7 -12 21 -41 37 -26 13 -66 36 -88 50 -22 14 -47 28
-55 32 -18 8 -229 129 -250 143 -8 6 -28 17 -45 26 -16 8 -42 22 -57 32 -14 9
-53 32 -85 50 -321 185 -423 246 -424 256 -1 15 -1 1674 0 1709 1 30 3 30 51
-3z m21 -2405 c33 -19 64 -35 69 -35 4 0 10 -4 12 -8 6 -15 100 -62 112 -55 6
3 8 2 3 -2 -7 -8 73 -65 90 -65 5 0 28 -13 52 -29 25 -17 48 -28 52 -26 4 3
10 -2 13 -11 4 -9 13 -14 22 -10 8 3 13 2 10 -2 -2 -4 16 -19 42 -32 26 -14
49 -27 52 -30 9 -10 190 -110 199 -110 5 0 11 -4 13 -8 5 -12 98 -64 98 -55 0
4 4 3 8 -3 10 -16 92 -66 92 -57 0 5 4 3 8 -3 4 -6 27 -21 52 -35 25 -13 47
-26 50 -29 3 -3 16 -11 29 -18 70 -40 99 -57 126 -73 17 -10 39 -23 50 -29 11
-5 43 -23 70 -39 28 -17 66 -39 85 -49 104 -57 99 -46 39 -82 -33 -19 -171
-99 -218 -126 -29 -17 -336 -195 -531 -308 -87 -50 -212 -121 -231 -131 -10
-5 -19 -13 -19 -17 0 -5 -9 -8 -19 -8 -11 0 -22 -4 -26 -9 -3 -6 -86 -56 -185
-112 -101 -57 -177 -106 -173 -112 3 -6 1 -7 -6 -3 -6 4 -34 -6 -61 -23 l-50
-31 0 905 c0 498 3 905 6 905 3 0 33 -16 65 -35z m2232 -1289 c89 -51 213
-123 276 -160 62 -36 117 -66 121 -66 4 0 13 -7 21 -16 7 -8 21 -13 31 -11 10
3 16 2 13 -3 -3 -4 41 -34 97 -66 56 -33 110 -63 119 -69 9 -5 40 -23 70 -39
30 -16 78 -44 107 -62 29 -19 54 -34 56 -34 3 0 50 -27 106 -60 56 -33 106
-60 111 -60 5 0 9 -3 9 -8 0 -4 17 -15 38 -25 20 -10 65 -35 100 -56 68 -42
68 -39 0 -76 -35 -19 -220 -126 -263 -152 -11 -7 -27 -15 -34 -19 -8 -4 -101
-58 -207 -119 -105 -62 -199 -115 -208 -118 -10 -4 -14 -12 -10 -18 4 -8 3 -9
-4 -5 -6 4 -48 -15 -93 -41 -103 -61 -140 -82 -214 -123 -33 -18 -67 -38 -75
-45 -8 -6 -33 -20 -55 -31 -22 -11 -58 -31 -80 -45 -22 -14 -67 -41 -100 -59
-50 -27 -164 -93 -225 -130 -60 -36 -238 -136 -252 -142 -10 -4 -18 -13 -18
-19 0 -7 -3 -10 -6 -6 -3 3 -40 -14 -81 -39 -41 -24 -76 -44 -79 -44 -2 0 -27
-15 -56 -33 -29 -19 -60 -37 -68 -40 -8 -4 -37 -21 -65 -37 -27 -17 -57 -34
-65 -37 -8 -4 -17 -9 -20 -12 -3 -3 -23 -16 -45 -28 -22 -12 -125 -71 -228
-130 -104 -59 -212 -121 -240 -137 -29 -16 -54 -32 -57 -35 -3 -3 -23 -15 -45
-26 -22 -11 -42 -22 -45 -25 -3 -3 -25 -16 -50 -29 -25 -13 -56 -33 -69 -43
-13 -10 -27 -18 -31 -18 -5 0 -52 -26 -107 -58 -54 -32 -105 -62 -113 -66 -8
-4 -24 -12 -35 -19 -11 -7 -42 -25 -70 -42 -27 -16 -53 -34 -57 -40 -4 -5 -8
-7 -8 -2 0 4 -21 -6 -47 -22 -26 -16 -50 -28 -53 -26 -4 2 -5 1624 -1 1720 1
15 28 36 104 79 56 33 110 66 121 75 10 9 20 15 22 13 4 -2 56 27 162 91 26
15 55 31 65 34 9 3 17 9 17 14 0 5 6 9 13 9 6 0 41 18 77 40 66 40 126 75 215
125 28 16 83 48 123 72 41 24 76 43 78 43 3 0 28 15 57 33 29 18 77 47 107 64
30 16 75 42 100 56 25 15 82 48 128 73 48 27 79 50 76 56 -4 7 -2 8 5 4 6 -4
23 0 37 9 15 9 51 31 83 48 31 16 58 33 61 36 3 3 21 14 40 25 53 28 117 65
198 113 41 24 76 43 78 43 3 0 29 15 58 33 28 17 61 37 72 44 10 6 25 12 32
12 7 1 85 -41 175 -93z"/>
<path d="M1625 11939 c-212 -16 -358 -131 -428 -340 -9 -26 -154 -737 -322
-1580 -169 -844 -385 -1926 -481 -2405 -96 -480 -174 -885 -174 -901 0 -62 74
-103 220 -120 83 -10 479 -10 545 0 28 5 66 11 85 13 65 11 134 51 157 91 14
26 52 193 118 523 53 267 99 492 100 500 3 12 544 2709 561 2795 2 11 20 101
40 200 44 221 40 197 54 275 19 100 25 99 39 -7 7 -53 15 -106 17 -118 2 -11
13 -85 24 -165 11 -80 22 -156 25 -170 5 -35 16 -110 20 -140 2 -14 6 -45 10
-70 12 -84 14 -95 29 -200 8 -58 18 -127 21 -155 4 -27 8 -57 11 -65 2 -8 6
-38 9 -65 4 -28 8 -61 10 -75 2 -14 20 -137 40 -275 20 -137 38 -261 40 -275
2 -14 7 -45 10 -70 3 -25 8 -56 10 -70 2 -14 43 -295 90 -625 47 -330 88 -611
90 -624 2 -13 7 -45 11 -70 3 -25 8 -57 10 -71 2 -14 24 -169 49 -345 25 -176
48 -331 50 -344 2 -13 7 -45 11 -70 3 -25 7 -56 9 -67 2 -12 6 -47 10 -78 4
-32 16 -67 27 -81 33 -42 124 -80 238 -101 19 -3 125 -7 235 -9 315 -4 475 26
557 104 23 23 87 125 171 276 74 132 179 321 234 420 141 252 328 587 410 735
39 69 180 321 313 560 133 239 285 512 338 605 144 258 607 1089 667 1196 172
311 330 587 333 584 2 -2 -1 -27 -7 -57 -6 -29 -13 -62 -15 -73 -2 -11 -191
-957 -420 -2103 -229 -1146 -416 -2094 -416 -2107 0 -109 135 -145 530 -140
124 2 239 6 255 9 17 4 52 11 80 17 78 16 127 50 152 106 12 26 42 152 67 278
25 127 239 1202 475 2389 456 2287 450 2250 417 2360 -27 90 -97 154 -197 182
-44 12 -145 15 -549 15 -526 1 -570 -3 -704 -50 -181 -64 -341 -227 -486 -496
-24 -44 -142 -251 -263 -460 -121 -209 -228 -396 -239 -415 -11 -19 -114 -197
-228 -395 -114 -198 -292 -506 -395 -685 -104 -179 -305 -527 -448 -775 -143
-247 -267 -463 -275 -478 -19 -38 -36 -29 -44 24 -3 24 -25 159 -48 299 -23
140 -57 350 -76 465 -18 116 -60 374 -93 575 -66 408 -140 862 -146 900 -6 33
-102 627 -108 665 -3 17 -10 62 -17 100 -15 98 -18 113 -25 170 -21 170 -78
316 -153 394 -94 97 -197 139 -387 157 -86 8 -772 10 -880 3z"/>
<path d="M9986 10644 c-209 -47 -439 -185 -636 -383 -102 -103 -154 -166 -245
-301 -32 -48 -55 -74 -52 -60 19 82 98 491 103 530 8 57 -13 102 -53 118 -77
30 -119 35 -323 38 -298 4 -428 -22 -480 -96 -16 -22 -60 -225 -185 -850 -90
-451 -166 -833 -169 -848 -2 -15 -20 -106 -40 -202 -19 -96 -37 -188 -40 -205
-3 -16 -17 -86 -31 -155 -14 -69 -28 -138 -31 -155 -3 -16 -65 -326 -137 -687
-93 -461 -130 -667 -125 -689 12 -60 63 -83 239 -108 69 -10 439 -7 529 4 132
15 229 60 256 118 8 18 95 435 193 927 196 980 207 1022 320 1255 155 319 388
592 612 717 159 89 286 92 504 13 129 -46 168 -32 228 82 48 92 91 240 131
449 34 175 49 365 32 392 -15 24 -95 63 -172 83 -108 28 -331 35 -428 13z"/>
<path d="M10465 7815 c-250 -46 -365 -158 -449 -436 -57 -193 -81 -401 -60
-536 7 -47 46 -136 71 -161 90 -92 213 -126 453 -126 344 -1 517 77 612 275
55 114 97 250 113 364 3 22 8 51 11 64 3 12 7 69 9 125 4 109 -10 207 -39 268
-36 76 -131 134 -263 161 -86 19 -362 19 -458 2z"/>
</g>
</svg>
